<svg width="512" height="512" viewBox="0 0 512 512" fill="none" xmlns="http://www.w3.org/2000/svg">
<g clip-path="url(#clip0_40_1211)">
<path d="M256 512C397.138 512 512 397.138 512 256C512 114.862 397.138 0 256 0C114.862 0 0 114.862 0 256C0 397.138 114.862 512 256 512ZM256 36.0352C376.868 36.0352 475.965 134.381 475.965 256C475.965 377.619 376.868 475.965 256 475.965C135.132 475.965 36.0352 376.868 36.0352 256C36.0352 135.132 135.132 36.0352 256 36.0352Z" fill="#CB9CBB"/>
<path d="M224.166 346.988C230.756 346.988 236.333 341.412 236.333 334.822V177.166C236.333 170.576 230.756 165 224.166 165C217.576 165 212 170.576 212 177.166V334.822C212 341.412 217.576 346.988 224.166 346.988ZM288.04 346.988C294.63 346.988 300.206 341.412 300.206 334.822V177.166C300.206 170.576 294.63 165 288.04 165C281.45 165 275.873 170.576 275.873 177.166V334.822C275.873 341.412 280.943 346.988 288.04 346.988Z" fill="#CB9CBB"/>
</g>
<defs>
<clipPath id="clip0_40_1211">
<rect width="512" height="512" fill="white"/>
</clipPath>
</defs>
</svg>
