<svg width="512" height="512" viewBox="0 0 512 512" fill="none" xmlns="http://www.w3.org/2000/svg">
<g clip-path="url(#clip0_38_185)">
<path d="M208 168V344L222.472 350.288L336 262.288V249.712L222.472 161.712L208 168ZM224 184.464L315.048 256L224 327.536V184.464Z" fill="#CB9CBB"/>
<path d="M256 0C187.624 0 123.336 26.64 74.992 75C26.632 123.336 0 187.624 0 256C0 324.376 26.632 388.664 74.992 437.008C123.336 485.368 187.624 512 256 512C324.376 512 388.664 485.36 437.016 437C485.368 388.664 512 324.376 512 256C512 187.624 485.368 123.336 437.008 74.992C388.664 26.632 324.376 0 256 0ZM425.704 425.696C380.368 471.032 320.104 496 256 496C191.896 496 131.632 471.032 86.304 425.688C40.968 380.368 16 320.104 16 256C16 191.896 40.968 131.632 86.304 86.304C131.632 40.968 191.896 16 256 16C320.104 16 380.368 40.976 425.704 86.312C471.04 131.632 496 191.896 496 256C496 320.104 471.04 380.368 425.704 425.696Z" fill="#CB9CBB"/>
</g>
<defs>
<clipPath id="clip0_38_185">
<rect width="512" height="512" fill="white"/>
</clipPath>
</defs>
</svg>
