<svg width="512" height="512" viewBox="0 0 512 512" fill="none" xmlns="http://www.w3.org/2000/svg">
<path d="M134.96 167.76C149.629 167.76 161.52 155.869 161.52 141.2C161.52 126.531 149.629 114.64 134.96 114.64C120.291 114.64 108.4 126.531 108.4 141.2C108.4 155.869 120.291 167.76 134.96 167.76Z" fill="#FFCC00"/>
<path d="M261.36 240.8C276.029 240.8 287.92 228.909 287.92 214.24C287.92 199.571 276.029 187.68 261.36 187.68C246.691 187.68 234.8 199.571 234.8 214.24C234.8 228.909 246.691 240.8 261.36 240.8Z" fill="#FFCC00"/>
<path d="M188.4 367.12C203.069 367.12 214.96 355.229 214.96 340.56C214.96 325.891 203.069 314 188.4 314C173.731 314 161.84 325.891 161.84 340.56C161.84 355.229 173.731 367.12 188.4 367.12Z" fill="#FFCC00"/>
<path d="M62 294.16C76.6687 294.16 88.56 282.269 88.56 267.6C88.56 252.931 76.6687 241.04 62 241.04C47.3313 241.04 35.44 252.931 35.44 267.6C35.44 282.269 47.3313 294.16 62 294.16Z" fill="#FFCC00"/>
<path d="M396.56 209.12C411.229 209.12 423.12 197.229 423.12 182.56C423.12 167.891 411.229 156 396.56 156C381.891 156 370 167.891 370 182.56C370 197.229 381.891 209.12 396.56 209.12Z" fill="#FFCC00"/>
<path d="M476.48 294.32C473.862 298.876 469.951 302.554 465.243 304.887C460.534 307.22 455.239 308.104 450.028 307.426C444.817 306.749 439.924 304.541 435.968 301.083C432.012 297.624 429.171 293.069 427.805 287.995C426.438 282.921 426.607 277.555 428.291 272.577C429.975 267.6 433.098 263.233 437.264 260.03C441.43 256.828 446.453 254.933 451.696 254.586C456.939 254.239 462.168 255.455 466.72 258.08C472.816 261.595 477.267 267.386 479.097 274.181C480.927 280.976 479.986 288.219 476.48 294.32Z" fill="#FFCC00"/>
<path d="M462.4 314.4C466.76 313.171 470.835 311.095 474.393 308.291C477.95 305.487 480.921 302.009 483.134 298.057C485.348 294.105 486.762 289.756 487.295 285.258C487.828 280.759 487.469 276.2 486.24 271.84C485.011 267.48 482.935 263.405 480.131 259.847C477.327 256.29 473.849 253.319 469.897 251.105C465.945 248.892 461.596 247.478 457.098 246.945C452.599 246.412 448.04 246.771 443.68 248L420.24 207.44C422.687 205.081 424.788 202.388 426.48 199.44C429.29 194.866 430.996 189.7 431.463 184.352C431.93 179.003 431.144 173.62 429.168 168.628C427.192 163.637 424.081 159.174 420.08 155.594C416.079 152.014 411.3 149.415 406.12 148.004C400.941 146.592 395.503 146.407 390.24 147.462C384.976 148.518 380.03 150.785 375.795 154.084C371.56 157.383 368.152 161.624 365.841 166.469C363.529 171.315 362.379 176.632 362.48 182L292.48 198.4C289.396 192.334 284.579 187.322 278.64 184C271.91 180.138 264.075 178.653 256.399 179.785C248.722 180.917 241.649 184.6 236.32 190.24L168 151.04C170.301 143.548 169.969 135.494 167.058 128.217C164.147 120.94 158.833 114.878 152 111.04C144.687 106.823 136.082 105.434 127.814 107.138C119.546 108.842 112.191 113.52 107.142 120.285C102.093 127.05 99.7006 135.432 100.419 143.843C101.138 152.254 104.917 160.109 111.04 165.92L72 234.64C66.121 232.885 59.8803 232.731 53.9218 234.193C47.9633 235.655 42.5027 238.68 38.1036 242.957C33.7045 247.233 30.5262 252.606 28.8965 258.521C27.2669 264.436 27.245 270.678 28.8331 276.605C30.4212 282.531 33.5618 287.926 37.9308 292.233C42.2998 296.541 47.739 299.604 53.6872 301.108C59.6353 302.612 65.8769 302.501 71.768 300.787C77.6592 299.074 82.9864 295.819 87.2 291.36L155.52 330.8C153.765 336.679 153.611 342.92 155.073 348.878C156.535 354.837 159.56 360.297 163.837 364.696C168.113 369.095 173.486 372.274 179.401 373.903C185.316 375.533 191.559 375.555 197.485 373.967C203.411 372.379 208.806 369.238 213.113 364.869C217.421 360.5 220.484 355.061 221.988 349.113C223.492 343.165 223.381 336.923 221.667 331.032C219.954 325.141 216.699 319.814 212.24 315.6L251.68 247.28C257.823 249.043 264.337 249.043 270.48 247.28C277.755 245.364 284.197 241.106 288.809 235.163C293.422 229.22 295.949 221.923 296 214.4L366 198C369.532 205.182 375.462 210.905 382.767 214.177C390.071 217.449 398.289 218.066 406 215.92H406.88L429.84 256C424.177 261.238 420.439 268.227 419.226 275.845C418.014 283.463 419.396 291.267 423.153 298.005C426.909 304.742 432.821 310.022 439.939 312.995C447.057 315.969 454.967 316.463 462.4 314.4ZM198.4 307.6C192.294 305.801 185.811 305.715 179.659 307.351C173.508 308.988 167.925 312.284 163.52 316.88L95.2 277.44C96.9222 271.319 96.9222 264.841 95.2 258.72C93.5524 252.578 90.1957 247.03 85.52 242.72L124.96 174.4C128.152 175.358 131.467 175.844 134.8 175.84C137.91 175.83 141.005 175.4 144 174.56C150.133 172.892 155.676 169.539 160 164.88L228.32 204.4C226.528 210.5 226.454 216.977 228.105 223.116C229.757 229.256 233.07 234.822 237.68 239.2L198.4 307.6ZM119.12 131.6C120.941 128.413 123.67 125.841 126.958 124.211C130.247 122.581 133.946 121.968 137.585 122.448C141.223 122.929 144.636 124.482 147.389 126.91C150.141 129.337 152.109 132.53 153.04 136.08C153.668 138.428 153.827 140.877 153.507 143.286C153.188 145.696 152.396 148.019 151.177 150.122C149.958 152.225 148.337 154.067 146.405 155.542C144.473 157.018 142.27 158.098 139.92 158.72C136.385 159.675 132.645 159.558 129.177 158.384C125.708 157.21 122.666 155.032 120.438 152.126C118.209 149.22 116.894 145.718 116.659 142.063C116.425 138.409 117.281 134.767 119.12 131.6ZM52.88 283.6C48.6439 281.112 45.5615 277.051 44.3031 272.302C43.0447 267.553 43.712 262.5 46.16 258.24C48.8215 254.419 52.8221 251.738 57.3682 250.728C61.9144 249.719 66.6737 250.456 70.7019 252.792C74.7302 255.129 77.7329 258.894 79.1145 263.341C80.496 267.788 80.1553 272.592 78.16 276.8C76.9486 278.929 75.3275 280.798 73.3903 282.298C71.4531 283.798 69.2381 284.899 66.8731 285.539C64.508 286.179 62.0398 286.344 59.6107 286.025C57.1815 285.705 54.8396 284.909 52.72 283.68L52.88 283.6ZM204.88 349.76C202.202 353.522 198.218 356.15 193.705 357.132C189.193 358.114 184.477 357.378 180.478 355.069C176.479 352.759 173.485 349.042 172.08 344.643C170.675 340.244 170.96 335.48 172.88 331.28C175.368 327.044 179.429 323.961 184.178 322.703C188.927 321.445 193.98 322.112 198.24 324.56C202.374 327.126 205.34 331.206 206.506 335.93C207.672 340.653 206.945 345.645 204.48 349.84L204.88 349.76ZM277.84 223.36C276.622 225.472 274.999 227.324 273.066 228.809C271.132 230.294 268.924 231.383 266.569 232.014C264.214 232.646 261.757 232.807 259.34 232.489C256.923 232.171 254.591 231.379 252.48 230.16C248.252 227.685 245.168 223.646 243.895 218.915C242.623 214.184 243.264 209.142 245.68 204.88C246.867 202.728 248.471 200.834 250.398 199.31C252.326 197.785 254.538 196.661 256.905 196.002C259.273 195.342 261.748 195.162 264.186 195.471C266.624 195.78 268.976 196.572 271.104 197.801C273.232 199.03 275.094 200.671 276.58 202.629C278.066 204.586 279.147 206.82 279.759 209.2C280.372 211.58 280.503 214.058 280.146 216.489C279.789 218.921 278.951 221.256 277.68 223.36H277.84ZM387.76 198.48C385.644 197.286 383.789 195.68 382.305 193.756C380.821 191.832 379.738 189.63 379.12 187.28C377.865 182.571 378.512 177.557 380.921 173.321C383.331 169.085 387.311 165.967 392 164.64C393.595 164.23 395.233 164.016 396.88 164C400.108 164.026 403.276 164.88 406.08 166.48C408.194 167.718 410.041 169.362 411.516 171.318C412.991 173.273 414.065 175.501 414.674 177.874C415.284 180.246 415.418 182.716 415.069 185.14C414.72 187.565 413.895 189.896 412.64 192C411.431 194.111 409.815 195.96 407.886 197.443C405.957 198.925 403.753 200.01 401.402 200.635C399.051 201.259 396.6 201.412 394.189 201.083C391.779 200.755 389.458 199.951 387.36 198.72L387.76 198.48ZM437.44 272C439.073 269.204 441.409 266.884 444.215 265.27C447.022 263.656 450.202 262.805 453.44 262.8C456.672 262.797 459.847 263.653 462.64 265.28C465.826 267.113 468.396 269.852 470.024 273.148C471.652 276.444 472.264 280.15 471.784 283.794C471.303 287.439 469.75 290.859 467.323 293.62C464.896 296.381 461.704 298.359 458.151 299.304C454.598 300.248 450.845 300.116 447.367 298.925C443.889 297.733 440.844 295.536 438.617 292.611C436.39 289.686 435.081 286.166 434.857 282.496C434.634 278.827 435.505 275.174 437.36 272H437.44Z" fill="#3B313D"/>
<path d="M352 294.64C349.878 294.64 347.843 295.483 346.343 296.983C344.843 298.483 344 300.518 344 302.64V310.64H336C333.878 310.64 331.843 311.483 330.343 312.983C328.843 314.483 328 316.518 328 318.64C328 320.762 328.843 322.797 330.343 324.297C331.843 325.797 333.878 326.64 336 326.64H344V334.64C344 336.762 344.843 338.797 346.343 340.297C347.843 341.797 349.878 342.64 352 342.64C354.122 342.64 356.157 341.797 357.657 340.297C359.157 338.797 360 336.762 360 334.64V326.64H368C370.122 326.64 372.157 325.797 373.657 324.297C375.157 322.797 376 320.762 376 318.64C376 316.518 375.157 314.483 373.657 312.983C372.157 311.483 370.122 310.64 368 310.64H360V302.64C360 300.518 359.157 298.483 357.657 296.983C356.157 295.483 354.122 294.64 352 294.64ZM339.04 98.08V106.08H331.04C328.918 106.08 326.883 106.923 325.383 108.423C323.883 109.923 323.04 111.958 323.04 114.08C323.04 116.202 323.883 118.237 325.383 119.737C326.883 121.237 328.918 122.08 331.04 122.08H339.04V130.08C339.04 132.202 339.883 134.237 341.383 135.737C342.883 137.237 344.918 138.08 347.04 138.08C349.162 138.08 351.197 137.237 352.697 135.737C354.197 134.237 355.04 132.202 355.04 130.08V122.08H363.04C365.162 122.08 367.197 121.237 368.697 119.737C370.197 118.237 371.04 116.202 371.04 114.08C371.04 111.958 370.197 109.923 368.697 108.423C367.197 106.923 365.162 106.08 363.04 106.08H355.04V98.08C355.04 95.9582 354.197 93.9234 352.697 92.4231C351.197 90.9228 349.162 90.08 347.04 90.08C344.918 90.08 342.883 90.9228 341.383 92.4231C339.883 93.9234 339.04 95.9582 339.04 98.08ZM32 82.8H40V90.8C40 92.9217 40.8429 94.9565 42.3431 96.4568C43.8434 97.9571 45.8783 98.8 48 98.8C50.1217 98.8 52.1566 97.9571 53.6569 96.4568C55.1571 94.9565 56 92.9217 56 90.8V82.8H64C66.1217 82.8 68.1566 81.9571 69.6569 80.4568C71.1571 78.9565 72 76.9217 72 74.8C72 72.6782 71.1571 70.6434 69.6569 69.1431C68.1566 67.6428 66.1217 66.8 64 66.8H56V58.8C56 56.6782 55.1571 54.6434 53.6569 53.1431C52.1566 51.6428 50.1217 50.8 48 50.8C45.8783 50.8 43.8434 51.6428 42.3431 53.1431C40.8429 54.6434 40 56.6782 40 58.8V66.8H32C29.8783 66.8 27.8434 67.6428 26.3431 69.1431C24.8429 70.6434 24 72.6782 24 74.8C24 76.9217 24.8429 78.9565 26.3431 80.4568C27.8434 81.9571 29.8783 82.8 32 82.8ZM107.92 372.8C105.798 372.8 103.763 373.643 102.263 375.143C100.763 376.643 99.92 378.678 99.92 380.8V388.8H91.92C89.7983 388.8 87.7634 389.643 86.2631 391.143C84.7629 392.643 83.92 394.678 83.92 396.8C83.92 398.922 84.7629 400.957 86.2631 402.457C87.7634 403.957 89.7983 404.8 91.92 404.8H99.92V412.8C99.92 414.922 100.763 416.957 102.263 418.457C103.763 419.957 105.798 420.8 107.92 420.8C110.042 420.8 112.077 419.957 113.577 418.457C115.077 416.957 115.92 414.922 115.92 412.8V404.8H123.92C126.042 404.8 128.077 403.957 129.577 402.457C131.077 400.957 131.92 398.922 131.92 396.8C131.92 394.678 131.077 392.643 129.577 391.143C128.077 389.643 126.042 388.8 123.92 388.8H115.92V380.8C115.92 378.678 115.077 376.643 113.577 375.143C112.077 373.643 110.042 372.8 107.92 372.8ZM429.04 435.2H421.04V427.2C421.04 425.078 420.197 423.043 418.697 421.543C417.197 420.043 415.162 419.2 413.04 419.2C410.918 419.2 408.883 420.043 407.383 421.543C405.883 423.043 405.04 425.078 405.04 427.2V435.2H397.04C394.918 435.2 392.883 436.043 391.383 437.543C389.883 439.043 389.04 441.078 389.04 443.2C389.04 445.322 389.883 447.357 391.383 448.857C392.883 450.357 394.918 451.2 397.04 451.2H405.04V459.2C405.04 461.322 405.883 463.357 407.383 464.857C408.883 466.357 410.918 467.2 413.04 467.2C415.162 467.2 417.197 466.357 418.697 464.857C420.197 463.357 421.04 461.322 421.04 459.2V451.2H429.04C431.162 451.2 433.197 450.357 434.697 448.857C436.197 447.357 437.04 445.322 437.04 443.2C437.04 441.078 436.197 439.043 434.697 437.543C433.197 436.043 431.162 435.2 429.04 435.2ZM232.8 44.96C230.678 44.96 228.643 45.8028 227.143 47.3031C225.643 48.8034 224.8 50.8382 224.8 52.96V60.96H216.8C214.678 60.96 212.643 61.8028 211.143 63.3031C209.643 64.8034 208.8 66.8382 208.8 68.96C208.8 71.0817 209.643 73.1165 211.143 74.6168C212.643 76.1171 214.678 76.96 216.8 76.96H224.8V84.96C224.8 87.0817 225.643 89.1165 227.143 90.6168C228.643 92.1171 230.678 92.96 232.8 92.96C234.922 92.96 236.957 92.1171 238.457 90.6168C239.957 89.1165 240.8 87.0817 240.8 84.96V76.96H248.8C250.922 76.96 252.957 76.1171 254.457 74.6168C255.957 73.1165 256.8 71.0817 256.8 68.96C256.8 66.8382 255.957 64.8034 254.457 63.3031C252.957 61.8028 250.922 60.96 248.8 60.96H240.8V52.96C240.8 50.8382 239.957 48.8034 238.457 47.3031C236.957 45.8028 234.922 44.96 232.8 44.96ZM185.36 224.72H177.36V216.72C177.36 214.598 176.517 212.563 175.017 211.063C173.517 209.563 171.482 208.72 169.36 208.72C167.238 208.72 165.203 209.563 163.703 211.063C162.203 212.563 161.36 214.598 161.36 216.72V224.72H153.36C151.238 224.72 149.203 225.563 147.703 227.063C146.203 228.563 145.36 230.598 145.36 232.72C145.36 234.842 146.203 236.877 147.703 238.377C149.203 239.877 151.238 240.72 153.36 240.72H161.36V248.72C161.36 250.842 162.203 252.877 163.703 254.377C165.203 255.877 167.238 256.72 169.36 256.72C171.482 256.72 173.517 255.877 175.017 254.377C176.517 252.877 177.36 250.842 177.36 248.72V240.72H185.36C187.482 240.72 189.517 239.877 191.017 238.377C192.517 236.877 193.36 234.842 193.36 232.72C193.36 230.598 192.517 228.563 191.017 227.063C189.517 225.563 187.482 224.72 185.36 224.72Z" fill="#3B313D"/>
</svg>
