<svg width="24" height="24" viewBox="0 0 24 24" fill="none" xmlns="http://www.w3.org/2000/svg">
<path d="M19.1151 2.7549H4.8848C2.85299 2.7549 1.19995 4.40794 1.19995 6.43975V17.5604C1.19995 19.5922 2.85299 21.2452 4.8848 21.2452H19.1152C21.1471 21.2452 22.8001 19.5922 22.8001 17.5604V6.43961C22.8001 4.4078 21.1471 2.75476 19.1152 2.75476L19.1151 2.7549ZM22.3764 17.5604C22.3764 19.3585 20.9134 20.8217 19.1151 20.8217H4.8848C3.08663 20.8217 1.62348 19.3587 1.62348 17.5604V6.43961C1.62348 4.64144 3.08649 3.17829 4.8848 3.17829H19.1152C20.9134 3.17829 22.3766 4.6413 22.3766 6.43961V17.5602L22.3764 17.5604Z" fill="#3B313D" stroke="#3B313D" stroke-width="0.4"/>
<path d="M18.1719 8.9493L12.8322 14.2934C12.3943 14.7502 11.6061 14.7504 11.1681 14.2934L5.82842 8.9493C5.74569 8.86657 5.61157 8.86671 5.52884 8.9493C5.44611 9.03203 5.44611 9.16614 5.52884 9.24887L10.8686 14.593C11.171 14.8955 11.5727 15.062 12.0004 15.062C12.428 15.062 12.8298 14.8954 13.1322 14.593L18.4719 9.24887C18.6619 9.05151 18.3763 8.75405 18.1722 8.94944L18.1719 8.9493Z" fill="#3B313D" stroke="#3B313D" stroke-width="0.4"/>
</svg>
