<svg width="512" height="512" viewBox="0 0 512 512" fill="none" xmlns="http://www.w3.org/2000/svg">
<g clip-path="url(#clip0_56_277)">
<path d="M292.592 129.233C284.261 124.729 274.557 125.135 266.634 130.32L185.106 183.668H134.399C121.567 183.668 111.128 193.682 111.128 205.99V305.995C111.128 318.304 121.567 328.317 134.399 328.317H185.003L266.645 381.687C270.911 384.475 275.69 385.879 280.494 385.879C284.614 385.879 288.754 384.845 292.598 382.765C300.924 378.26 305.895 369.919 305.895 360.452V151.548C305.894 142.078 300.921 133.736 292.592 129.233ZM285.894 360.452C285.894 362.575 284.947 364.164 283.08 365.174C281.212 366.185 279.364 366.107 277.588 364.946L193.453 309.947C191.826 308.884 189.925 308.317 187.981 308.317H134.399C132.527 308.317 131.128 307.091 131.128 305.995V205.99C131.128 204.894 132.527 203.668 134.399 203.668H188.087C190.032 203.668 191.935 203.101 193.563 202.036L277.585 147.056C278.536 146.433 279.508 146.122 280.492 146.122C281.346 146.122 282.211 146.357 283.079 146.827C284.946 147.836 285.893 149.425 285.893 151.549V360.452H285.894ZM397.944 239.305L381.249 256L397.944 272.695C401.849 276.6 401.849 282.932 397.944 286.838C395.991 288.791 393.432 289.767 390.873 289.767C388.314 289.767 385.755 288.791 383.802 286.838L367.107 270.143L350.412 286.838C349.484 287.768 348.382 288.505 347.169 289.008C345.955 289.511 344.654 289.769 343.341 289.767C342.028 289.769 340.727 289.511 339.513 289.008C338.3 288.506 337.197 287.768 336.27 286.838C332.365 282.933 332.365 276.601 336.27 272.695L352.964 256L336.269 239.305C332.364 235.4 332.364 229.068 336.269 225.162C340.175 221.257 346.505 221.257 350.412 225.162L367.107 241.857L383.802 225.162C387.708 221.257 394.04 221.258 397.945 225.162C401.849 229.068 401.849 235.4 397.944 239.305ZM256 0C114.841 0 0 114.841 0 256C0 397.159 114.841 512 256 512C397.159 512 512 397.159 512 256C512 114.841 397.159 0 256 0ZM256 492C125.87 492 20 386.131 20 256C20 125.869 125.87 20 256 20C386.131 20 492 125.869 492 256C492 386.131 386.13 492 256 492Z" fill="#CB9CBB"/>
</g>
<defs>
<clipPath id="clip0_56_277">
<rect width="512" height="512" fill="white"/>
</clipPath>
</defs>
</svg>
