<svg width="24" height="24" viewBox="0 0 24 24" fill="none" xmlns="http://www.w3.org/2000/svg">
<g clip-path="url(#clip0_52_154)">
<path d="M11.8028 23.25C5.6055 23.25 0.75 18.3083 0.75 12C0.75 9.27825 1.67775 6.66675 3.36375 4.647C3.49725 4.488 3.73275 4.46775 3.89175 4.59975C4.05075 4.7325 4.0725 4.96875 3.93975 5.12775C2.36625 7.0125 1.5 9.453 1.5 12C1.5 17.8882 6.0255 22.5 11.8028 22.5C17.7015 22.5 22.5 17.79 22.5 12C22.5 6.21 17.7015 1.5 11.8028 1.5C9.97275 1.5 8.193 1.965 6.65925 2.844C6.4815 2.94375 6.2505 2.8845 6.14775 2.7045C6.045 2.5245 6.10725 2.29575 6.28725 2.19225C7.93425 1.24875 9.8415 0.75 11.8028 0.75C18.1148 0.75 23.25 5.79675 23.25 12C23.25 18.2032 18.1148 23.25 11.8028 23.25Z" fill="#3B313D" stroke="#3B313D" stroke-width="0.2"/>
<path d="M5.65723 3.414C5.65723 3.62025 5.48848 3.789 5.28223 3.789C5.07598 3.789 4.90723 3.62025 4.90723 3.414C4.90723 3.20775 5.07598 3.039 5.28223 3.039C5.48848 3.039 5.65723 3.207 5.65723 3.414ZM14.6625 18.0135C14.5792 18.0135 14.4945 17.9858 14.4255 17.9288L10.1032 14.388C10.0185 14.319 9.96823 14.2163 9.96523 14.1068C9.96298 13.9973 10.008 13.893 10.089 13.8195L13.2967 10.9245C13.4505 10.7843 13.6875 10.7978 13.8262 10.9515C13.9657 11.1053 13.953 11.3423 13.7992 11.481L10.9147 14.0835L14.8995 17.3483C15.06 17.4795 15.0832 17.7158 14.952 17.8763C14.8785 17.9663 14.7705 18.0135 14.6625 18.0135Z" fill="#3B313D"/>
<mask id="path-3-inside-1_52_154" fill="white">
<path d="M15.1178 18.153C14.919 18.153 14.7053 18.0907 14.481 17.967L12.0165 15.9862L10.7535 17.151C10.578 17.3227 10.3635 17.5312 9.93677 17.5312C9.41177 17.5312 9.28953 17.2545 9.20928 16.9702C9.19503 16.9215 9.17928 16.8645 9.15603 16.7992L8.25152 13.8225L5.65952 13.014C5.04902 12.8265 4.96727 12.4522 4.96052 12.3007C4.95002 12.0487 5.08128 11.6895 5.76603 11.415L16.902 7.11824C17.2208 6.99374 17.595 7.09424 17.811 7.36049C17.9633 7.54724 18.0218 7.79024 17.9723 8.02724L16.0485 17.2335C15.876 18.063 15.3398 18.153 15.1178 18.153ZM12 15.1162C12.0833 15.1162 12.1665 15.144 12.2348 15.1995L14.8973 17.346C15.2415 17.5102 15.2723 17.2822 15.315 17.0805L17.2388 7.87499L17.1915 7.81424L6.04202 12.1132C5.91077 12.1657 5.82453 12.2175 5.77203 12.2557C5.79978 12.2692 5.83652 12.2835 5.88227 12.2977L8.66552 13.1662C8.78327 13.2037 8.87628 13.2967 8.91228 13.4152L9.86777 16.5622C9.89252 16.6282 9.91352 16.7032 9.93152 16.7662C9.93302 16.7707 9.93452 16.776 9.93527 16.7805C10.035 16.7797 10.0875 16.7527 10.2263 16.617L11.7458 15.2145C11.8178 15.15 11.9085 15.1162 12 15.1162Z"/>
</mask>
<path d="M15.1178 18.153C14.919 18.153 14.7053 18.0907 14.481 17.967L12.0165 15.9862L10.7535 17.151C10.578 17.3227 10.3635 17.5312 9.93677 17.5312C9.41177 17.5312 9.28953 17.2545 9.20928 16.9702C9.19503 16.9215 9.17928 16.8645 9.15603 16.7992L8.25152 13.8225L5.65952 13.014C5.04902 12.8265 4.96727 12.4522 4.96052 12.3007C4.95002 12.0487 5.08128 11.6895 5.76603 11.415L16.902 7.11824C17.2208 6.99374 17.595 7.09424 17.811 7.36049C17.9633 7.54724 18.0218 7.79024 17.9723 8.02724L16.0485 17.2335C15.876 18.063 15.3398 18.153 15.1178 18.153ZM12 15.1162C12.0833 15.1162 12.1665 15.144 12.2348 15.1995L14.8973 17.346C15.2415 17.5102 15.2723 17.2822 15.315 17.0805L17.2388 7.87499L17.1915 7.81424L6.04202 12.1132C5.91077 12.1657 5.82453 12.2175 5.77203 12.2557C5.79978 12.2692 5.83652 12.2835 5.88227 12.2977L8.66552 13.1662C8.78327 13.2037 8.87628 13.2967 8.91228 13.4152L9.86777 16.5622C9.89252 16.6282 9.91352 16.7032 9.93152 16.7662C9.93302 16.7707 9.93452 16.776 9.93527 16.7805C10.035 16.7797 10.0875 16.7527 10.2263 16.617L11.7458 15.2145C11.8178 15.15 11.9085 15.1162 12 15.1162Z" fill="#3B313D"/>
<path d="M14.481 17.967L13.8546 18.7464L13.9221 18.8007L13.9979 18.8425L14.481 17.967ZM12.0165 15.9862L12.643 15.2068L11.9717 14.6673L11.3386 15.2511L12.0165 15.9862ZM10.7535 17.151L10.0756 16.4159L10.0647 16.4259L10.0541 16.4363L10.7535 17.151ZM9.20928 16.9702L10.1717 16.6985L10.1691 16.6897L9.20928 16.9702ZM9.15602 16.7992L8.19922 17.09L8.2061 17.1126L8.21404 17.1349L9.15602 16.7992ZM8.25152 13.8225L9.20833 13.5318L9.05448 13.0254L8.5493 12.8679L8.25152 13.8225ZM5.65952 13.014L5.9573 12.0593L5.95312 12.0581L5.65952 13.014ZM4.96052 12.3007L3.96139 12.3424L3.96152 12.3453L4.96052 12.3007ZM5.76603 11.415L5.40602 10.482L5.39393 10.4868L5.76603 11.415ZM16.902 7.11824L17.262 8.05121L17.2658 8.04971L16.902 7.11824ZM17.811 7.36049L17.0344 7.99051L17.036 7.99237L17.811 7.36049ZM17.9723 8.02724L18.9511 8.23179L18.9512 8.23169L17.9723 8.02724ZM16.0485 17.2335L15.0697 17.0289L15.0695 17.0299L16.0485 17.2335ZM12.2348 15.1995L11.6039 15.9754L11.6071 15.978L12.2348 15.1995ZM14.8973 17.346L14.2696 18.1245L14.3609 18.1981L14.4667 18.2485L14.8973 17.346ZM15.315 17.0805L16.2933 17.2878L16.2939 17.2851L15.315 17.0805ZM17.2388 7.87499L18.2176 8.07955L18.3123 7.62644L18.0281 7.26106L17.2388 7.87499ZM17.1915 7.81424L17.9809 7.2003L17.5248 6.61396L16.8318 6.8812L17.1915 7.81424ZM6.04202 12.1132L5.68224 11.1801L5.67063 11.1848L6.04202 12.1132ZM5.77203 12.2557L5.18317 11.4475L3.83852 12.4272L5.33456 13.155L5.77203 12.2557ZM5.88227 12.2977L6.18015 11.3431L6.17966 11.343L5.88227 12.2977ZM8.66552 13.1662L8.96898 12.2134L8.9634 12.2116L8.66552 13.1662ZM8.91228 13.4152L9.86914 13.1247L9.8691 13.1246L8.91228 13.4152ZM9.86777 16.5622L8.91091 16.8528L8.92021 16.8834L8.93145 16.9134L9.86777 16.5622ZM9.93152 16.7662L8.97 17.041L8.97597 17.0619L8.98284 17.0825L9.93152 16.7662ZM9.93528 16.7805L8.94888 16.9449L9.08921 17.7869L9.94279 17.7805L9.93528 16.7805ZM10.2263 16.617L9.54803 15.8822L9.53734 15.892L9.52694 15.9022L10.2263 16.617ZM11.7458 15.2145L11.0785 14.4697L11.073 14.4746L11.0675 14.4797L11.7458 15.2145ZM15.1178 18.153V17.153C15.1292 17.153 15.0813 17.1561 14.9642 17.0915L14.481 17.967L13.9979 18.8425C14.3293 19.0254 14.7089 19.153 15.1178 19.153V18.153ZM14.481 17.967L15.1075 17.1875L12.643 15.2068L12.0165 15.9862L11.3901 16.7657L13.8546 18.7464L14.481 17.967ZM12.0165 15.9862L11.3386 15.2511L10.0756 16.4159L10.7535 17.151L11.4315 17.8861L12.6945 16.7214L12.0165 15.9862ZM10.7535 17.151L10.0541 16.4363C10.0078 16.4816 9.98532 16.503 9.96457 16.5206C9.94693 16.5356 9.94106 16.5385 9.94357 16.5371C9.94745 16.5349 9.95427 16.5318 9.96063 16.5301C9.96669 16.5285 9.96066 16.5312 9.93677 16.5312V17.5312V18.5312C10.7833 18.5312 11.2472 18.067 11.453 17.8657L10.7535 17.151ZM9.93677 17.5312V16.5312C9.89147 16.5312 9.90157 16.5251 9.94419 16.54C9.99301 16.5572 10.0536 16.5913 10.1083 16.6452C10.1593 16.6955 10.1824 16.7405 10.1882 16.7528C10.1919 16.7607 10.1866 16.7516 10.1717 16.6985L9.20928 16.9702L8.24689 17.2419C8.29227 17.4027 8.39812 17.7677 8.70418 18.0695C9.047 18.4074 9.49032 18.5312 9.93677 18.5312V17.5312ZM9.20928 16.9702L10.1691 16.6897C10.1592 16.6557 10.1335 16.5633 10.098 16.4636L9.15602 16.7992L8.21404 17.1349C8.22502 17.1657 8.23087 17.1873 8.24944 17.2508L9.20928 16.9702ZM9.15602 16.7992L10.1128 16.5085L9.20833 13.5318L8.25152 13.8225L7.29472 14.1132L8.19922 17.09L9.15602 16.7992ZM8.25152 13.8225L8.5493 12.8679L5.9573 12.0594L5.65952 13.014L5.36175 13.9686L7.95375 14.7771L8.25152 13.8225ZM5.65952 13.014L5.95312 12.0581C5.8839 12.0368 5.85757 12.0189 5.85696 12.0185C5.85651 12.0182 5.86112 12.0213 5.86886 12.0288C5.87662 12.0363 5.88606 12.0469 5.89595 12.0607C5.93942 12.1212 5.95668 12.1921 5.95953 12.2562L4.96052 12.3007L3.96152 12.3453C3.97112 12.5608 4.03263 12.8946 4.27129 13.2271C4.51594 13.5678 4.88615 13.8226 5.36593 13.9699L5.65952 13.014ZM4.96052 12.3007L5.95966 12.2591C5.96109 12.2934 5.95762 12.3338 5.94525 12.376C5.93252 12.4195 5.91448 12.4505 5.90163 12.4675C5.87743 12.4997 5.90897 12.4351 6.13812 12.3432L5.76603 11.415L5.39393 10.4868C4.93834 10.6694 4.56187 10.9217 4.30348 11.2651C4.03373 11.6236 3.94751 12.0092 3.96139 12.3424L4.96052 12.3007ZM5.76603 11.415L6.126 12.348L17.262 8.0512L16.902 7.11824L16.542 6.18528L5.40605 10.482L5.76603 11.415ZM16.902 7.11824L17.2658 8.04971C17.2158 8.06924 17.1705 8.06792 17.137 8.05897C17.1036 8.05005 17.066 8.02938 17.0344 7.99051L17.811 7.36049L18.5876 6.73048C18.1002 6.12968 17.2661 5.90245 16.5382 6.18677L16.902 7.11824ZM17.811 7.36049L17.036 7.99237C16.9957 7.94303 16.9818 7.8781 16.9934 7.82279L17.9723 8.02724L18.9512 8.23169C19.0617 7.70238 18.9308 7.15145 18.5861 6.72861L17.811 7.36049ZM17.9723 8.02724L16.9934 7.8227L15.0697 17.0289L16.0485 17.2335L17.0274 17.438L18.9511 8.23179L17.9723 8.02724ZM16.0485 17.2335L15.0695 17.0299C15.0467 17.1395 15.0198 17.187 15.013 17.198C15.0076 17.2067 15.0133 17.1953 15.0348 17.1805C15.0542 17.1672 15.0731 17.1601 15.0863 17.1568C15.0979 17.1538 15.1076 17.153 15.1178 17.153V18.153V19.153C15.3518 19.153 15.7632 19.107 16.1686 18.8281C16.5971 18.5332 16.8977 18.0617 17.0276 17.4371L16.0485 17.2335ZM12 15.1162V16.1162C11.8613 16.1162 11.7199 16.0697 11.6039 15.9753L12.2348 15.1995L12.8657 14.4236C12.6131 14.2182 12.3052 14.1162 12 14.1162V15.1162ZM12.2348 15.1995L11.6071 15.978L14.2696 18.1245L14.8973 17.346L15.5249 16.5675L12.8624 14.421L12.2348 15.1995ZM14.8973 17.346L14.4667 18.2485C14.6222 18.3227 14.854 18.4094 15.1293 18.4018C15.4533 18.3929 15.7481 18.2554 15.9593 18.0231C16.1356 17.8291 16.2073 17.6189 16.2373 17.5198C16.2675 17.4198 16.2892 17.307 16.2933 17.2878L15.315 17.0805L14.3367 16.8732C14.3194 16.9549 14.3213 16.9462 14.323 16.9406C14.3244 16.9358 14.3589 16.8102 14.4792 16.6779C14.6343 16.5072 14.8542 16.4086 15.0743 16.4026C15.165 16.4001 15.2335 16.414 15.2715 16.4242C15.2913 16.4295 15.3058 16.4346 15.3146 16.438C15.3191 16.4397 15.3225 16.4411 15.3246 16.442C15.3268 16.4429 15.3279 16.4435 15.3279 16.4435L14.8973 17.346ZM15.315 17.0805L16.2939 17.2851L18.2176 8.07955L17.2388 7.87499L16.2599 7.67043L14.3362 16.8759L15.315 17.0805ZM17.2388 7.87499L18.0281 7.26106L17.9809 7.2003L17.1915 7.81424L16.4022 8.42818L16.4494 8.48893L17.2388 7.87499ZM17.1915 7.81424L16.8318 6.8812L5.68226 11.1802L6.04202 12.1132L6.40179 13.0463L17.5513 8.74729L17.1915 7.81424ZM6.04202 12.1132L5.67063 11.1848C5.46968 11.2651 5.30911 11.3558 5.18317 11.4475L5.77203 12.2557L6.36088 13.064C6.33995 13.0792 6.35187 13.0663 6.41342 13.0417L6.04202 12.1132ZM5.77203 12.2557L5.33456 13.155C5.42073 13.1969 5.50751 13.2284 5.58489 13.2525L5.88227 12.2977L6.17966 11.343C6.17423 11.3413 6.17385 11.341 6.17778 11.3425C6.18131 11.3439 6.19255 11.3483 6.20949 11.3565L5.77203 12.2557ZM5.88227 12.2977L5.5844 13.2523L8.36765 14.1208L8.66552 13.1662L8.9634 12.2116L6.18015 11.3431L5.88227 12.2977ZM8.66552 13.1662L8.36207 14.1191C8.17126 14.0583 8.01656 13.907 7.95545 13.7059L8.91228 13.4152L9.8691 13.1246C9.73599 12.6864 9.39529 12.3492 8.96898 12.2134L8.66552 13.1662ZM8.91228 13.4152L7.95541 13.7058L8.91091 16.8528L9.86777 16.5622L10.8246 16.2717L9.86914 13.1247L8.91228 13.4152ZM9.86777 16.5622L8.93145 16.9134C8.93346 16.9187 8.93797 16.9317 8.94535 16.956C8.95291 16.9809 8.95986 17.0055 8.97 17.041L9.93152 16.7662L10.893 16.4915C10.8789 16.4419 10.8461 16.3231 10.8041 16.2111L9.86777 16.5622ZM9.93152 16.7662L8.98284 17.0825C8.97858 17.0697 8.97338 17.0531 8.96806 17.0333C8.96312 17.015 8.95543 16.9842 8.94888 16.9449L9.93528 16.7805L10.9217 16.6161C10.9086 16.5375 10.8889 16.4762 10.8802 16.45L9.93152 16.7662ZM9.93528 16.7805L9.94279 17.7805C10.1078 17.7792 10.3225 17.7507 10.5511 17.6239C10.7229 17.5286 10.8542 17.4017 10.9256 17.3318L10.2263 16.617L9.52694 15.9022C9.50067 15.9279 9.49301 15.9341 9.49659 15.9311C9.50054 15.9278 9.53044 15.903 9.58116 15.8749C9.63798 15.8433 9.70662 15.8155 9.78352 15.7982C9.85507 15.7821 9.90947 15.7807 9.92776 15.7805L9.93528 16.7805ZM10.2263 16.617L10.9045 17.3518L12.424 15.9493L11.7458 15.2145L11.0675 14.4797L9.54803 15.8822L10.2263 16.617ZM11.7458 15.2145L12.413 15.9593C12.3018 16.059 12.155 16.1162 12 16.1162V15.1162V14.1162C11.662 14.1162 11.3338 14.241 11.0785 14.4697L11.7458 15.2145Z" fill="#3B313D" mask="url(#path-3-inside-1_52_154)"/>
<path d="M15.0322 10.164C15.0322 10.3703 14.8635 10.539 14.6572 10.539C14.451 10.539 14.2822 10.3703 14.2822 10.164C14.2822 9.95775 14.451 9.789 14.6572 9.789C14.8635 9.789 15.0322 9.957 15.0322 10.164Z" fill="#3B313D"/>
</g>
<defs>
<clipPath id="clip0_52_154">
<rect width="24" height="24" fill="white"/>
</clipPath>
</defs>
</svg>
